<svg width="30" height="22" viewBox="0 0 30 22" fill="none" xmlns="http://www.w3.org/2000/svg">
<path d="M2.8794 6.7813C3.2589 7.03125 4.40284 7.77358 6.31128 9.00792C8.21978 10.2423 9.68182 11.1927 10.6975 11.8592C10.809 11.9323 11.0461 12.0911 11.4088 12.3359C11.7715 12.5808 12.0729 12.7788 12.3127 12.9298C12.5527 13.0807 12.8429 13.2501 13.1834 13.4375C13.5239 13.6248 13.8448 13.7656 14.1461 13.8589C14.4475 13.9529 14.7265 13.9995 14.9831 13.9995H15H15.0169C15.2735 13.9995 15.5526 13.9529 15.854 13.8589C16.1552 13.7656 16.4764 13.6246 16.8166 13.4375C17.1569 13.2498 17.447 13.0807 17.687 12.9298C17.927 12.7788 18.2282 12.5808 18.591 12.3359C18.9537 12.0909 19.191 11.9323 19.3026 11.8592C20.3292 11.1927 22.941 9.49987 27.1373 6.78097C27.952 6.24995 28.6327 5.60919 29.1794 4.85914C29.7266 4.10942 29.9999 3.32293 29.9999 2.50009C29.9999 1.81248 29.7347 1.22388 29.2045 0.734342C28.6744 0.244689 28.0465 0 27.3213 0H2.67846C1.81914 0 1.15784 0.270795 0.694666 0.812384C0.231555 1.35408 0 2.03118 0 2.84362C0 3.49986 0.307021 4.211 0.920768 4.97659C1.53446 5.74224 2.18755 6.34386 2.8794 6.7813Z" fill="#C2C2C2"/>
<path d="M28.3256 8.45309C24.6653 10.7654 21.8859 12.5625 19.9889 13.8439C19.3527 14.2812 18.8367 14.6226 18.4403 14.8672C18.044 15.112 17.5169 15.362 16.8583 15.6171C16.2 15.8726 15.5864 15.9999 15.0171 15.9999H15H14.9832C14.414 15.9999 13.8001 15.8726 13.1417 15.6171C12.4834 15.362 11.9559 15.112 11.5597 14.8672C11.1636 14.6226 10.6474 14.2812 10.0113 13.8439C8.50452 12.8127 5.73113 11.0155 1.69102 8.45309C1.05469 8.05751 0.49108 7.60409 0 7.09375V19.4998C0 20.1877 0.262164 20.776 0.786784 21.2656C1.31129 21.7554 1.94198 22.0001 2.67863 22.0001H27.3215C28.058 22.0001 28.6887 21.7554 29.2132 21.2656C29.738 20.7758 30 20.1878 30 19.4998V7.09375C29.52 7.59353 28.9621 8.04695 28.3256 8.45309Z" fill="#C2C2C2"/>
</svg>
