<svg width="25" height="25" viewBox="0 0 25 25" fill="none" xmlns="http://www.w3.org/2000/svg">
<path d="M12.5 0.00243085C5.74438 -0.130759 0.154248 5.22595 0 11.9804C0.017627 15.4187 1.54023 18.6769 4.16665 20.8962V24.4792C4.16665 24.7668 4.39985 25 4.6875 25C4.78511 25 4.88076 24.9726 4.96353 24.9209L7.86665 23.1075C9.34575 23.6732 10.9164 23.9616 12.5 23.9585C19.2556 24.0916 24.8458 18.7349 25 11.9805C24.8458 5.22595 19.2556 -0.130759 12.5 0.00243085Z" fill="#C2C2C2"/>
<path d="M20.7283 8.54337C20.5733 8.33567 20.2892 8.27352 20.0616 8.39753L14.645 11.3504L11.2752 8.46105C11.0686 8.28392 10.7604 8.29569 10.5679 8.48815L4.31795 14.7375C4.11516 14.9415 4.11614 15.2713 4.32019 15.474C4.48333 15.6362 4.73347 15.6721 4.93567 15.5625L10.3523 12.6096L13.7252 15.5C13.9319 15.6771 14.2401 15.6653 14.4325 15.4729L20.6825 9.22348C20.8646 9.03966 20.8842 8.74999 20.7283 8.54337Z" fill="#FAFAFA"/>
</svg>
