<svg width="25" height="25" viewBox="0 0 25 25" fill="none" xmlns="http://www.w3.org/2000/svg">
<path d="M21.6247 10.4908C21.6556 6.96611 18.5728 3.73491 14.7527 3.28809C14.6767 3.2793 14.594 3.26597 14.5064 3.25181C14.3172 3.22129 14.1217 3.18994 13.9244 3.18994C13.1414 3.18994 12.9322 3.72549 12.877 4.04492C12.8234 4.35547 12.8746 4.61626 13.0287 4.82041C13.288 5.16372 13.7442 5.22465 14.1106 5.27353C14.218 5.28798 14.3193 5.30141 14.4042 5.31997C17.8363 6.06679 18.992 7.24091 19.5568 10.5547C19.5706 10.6357 19.5768 10.7355 19.5834 10.8413C19.6081 11.2374 19.6594 12.0616 20.5693 12.0616H20.5694C20.6451 12.0616 20.7265 12.0552 20.8113 12.0426C21.6586 11.9172 21.632 11.1639 21.6193 10.8019C21.6156 10.7 21.6122 10.6036 21.6211 10.5394C21.6234 10.5233 21.6246 10.507 21.6247 10.4908Z" fill="#C2C2C2"/>
<path d="M13.7023 1.99443C13.8039 2.00156 13.9002 2.00839 13.9803 2.02036C19.6163 2.8644 22.2082 5.46469 22.9265 10.9959C22.9386 11.0899 22.9406 11.2046 22.9426 11.326C22.9497 11.7581 22.9645 12.6572 23.9559 12.6758L23.9867 12.676C24.2976 12.676 24.545 12.5847 24.7219 12.4045C25.0305 12.0901 25.009 11.6231 24.9916 11.2478C24.9874 11.1557 24.9833 11.069 24.9843 10.993C25.056 5.33607 20.0275 0.206347 14.2235 0.015625C14.1995 0.0148437 14.1765 0.0161133 14.1533 0.0192871C14.1419 0.0208984 14.1207 0.0229492 14.0845 0.0229492C14.0267 0.0229492 13.9555 0.0180664 13.8799 0.0130859C13.7886 0.00698241 13.6851 0 13.5803 0C12.6559 0 12.4802 0.639745 12.4578 1.02109C12.4059 1.90249 13.2815 1.9645 13.7023 1.99443Z" fill="#C2C2C2"/>
<path d="M22.6543 18.1446C22.5344 18.0555 22.4105 17.9632 22.2945 17.8722C21.6792 17.39 21.0245 16.9455 20.3914 16.5156C20.26 16.4265 20.1286 16.3373 19.9977 16.2478C19.1867 15.6931 18.4576 15.4235 17.7687 15.4235C16.8409 15.4235 16.032 15.9227 15.3644 16.9071C15.0686 17.3435 14.7097 17.5557 14.2675 17.5557C14.006 17.5557 13.7088 17.483 13.3844 17.3396C10.7666 16.1837 8.89736 14.4113 7.82848 12.0718C7.31177 10.941 7.47929 10.2019 8.38867 9.60034C8.90508 9.25903 9.8663 8.62363 9.79821 7.40689C9.72109 6.02515 6.59033 1.86759 5.27119 1.39543C4.71271 1.19543 4.1259 1.19357 3.52394 1.39079C2.00745 1.88722 0.919217 2.75905 0.37658 3.91183C-0.147805 5.02574 -0.124138 6.33365 0.445074 7.69419C2.09053 11.6279 4.40393 15.0576 7.3213 17.8877C10.1769 20.6582 13.6866 22.9276 17.7529 24.6327C18.1195 24.7862 18.5039 24.87 18.7846 24.9311C18.8803 24.9521 18.9629 24.9699 19.0231 24.986C19.0562 24.9948 19.0903 24.9995 19.1245 24.9998L19.1567 25C19.1568 25 19.1567 25 19.1568 25C21.0693 25 23.3658 23.2981 24.0711 21.3579C24.689 19.659 23.5608 18.8193 22.6543 18.1446Z" fill="#C2C2C2"/>
<path d="M14.548 6.48798C14.2206 6.49604 13.5391 6.5125 13.3001 7.18837C13.1882 7.50419 13.2016 7.77841 13.3399 8.00341C13.5429 8.33354 13.9318 8.43471 14.2856 8.49023C15.5685 8.69071 16.2274 9.38153 16.3592 10.6641C16.4204 11.2622 16.834 11.6798 17.365 11.6798H17.3651C17.4043 11.6798 17.4444 11.6776 17.4844 11.6728C18.123 11.5989 18.4326 11.1419 18.4046 10.3149C18.4148 9.4518 17.951 8.47192 17.162 7.6914C16.3703 6.90849 15.416 6.46757 14.548 6.48798Z" fill="#C2C2C2"/>
</svg>
